<?xml version="1.0" standalone="no"?>
<!DOCTYPE svg PUBLIC "-//W3C//DTD SVG 20010904//EN"
 "http://www.w3.org/TR/2001/REC-SVG-20010904/DTD/svg10.dtd">
<svg version="1.0" xmlns="http://www.w3.org/2000/svg"
 width="512.000000pt" height="512.000000pt" viewBox="0 0 512.000000 512.000000"
 preserveAspectRatio="xMidYMid meet">
<metadata>
Created by potrace 1.14, written by Peter Selinger 2001-2017
</metadata>
<g transform="translate(0.000000,512.000000) scale(0.100000,-0.100000)"
fill="#000000" stroke="none">
<path d="M1427 4504 c-1 -1 -31 -5 -67 -9 -95 -9 -130 -16 -200 -36 -25 -7
-47 -13 -50 -13 -22 -4 -184 -75 -233 -103 -86 -48 -209 -138 -259 -189 -49
-50 -62 -85 -42 -111 20 -27 18 -37 -27 -97 -35 -47 -45 -55 -65 -50 -52 13
-72 -2 -113 -89 -38 -80 -87 -214 -96 -266 -2 -14 -10 -57 -18 -96 -20 -107
-21 -367 -2 -439 9 -33 21 -66 28 -74 9 -12 4 -20 -28 -45 -68 -52 -142 -136
-173 -195 -53 -101 -67 -157 -67 -272 0 -122 20 -202 73 -293 l34 -59 -21 -22
c-12 -12 -21 -26 -21 -29 0 -4 -8 -20 -17 -34 -54 -82 -76 -250 -47 -363 46
-179 179 -319 351 -370 41 -13 43 -15 43 -51 0 -68 21 -142 65 -234 87 -177
251 -303 443 -339 95 -17 3233 -15 3307 3 214 52 410 242 464 451 15 58 19 87
20 127 1 27 6 34 29 39 69 16 171 75 229 133 107 108 155 232 148 385 -5 120
-57 247 -129 315 l-24 22 24 43 c120 215 79 490 -100 672 l-73 74 23 48 c13
27 27 67 32 89 12 53 7 352 -7 433 -45 260 -167 496 -350 678 -193 192 -432
313 -707 358 -33 5 -2371 13 -2377 8z"/>
</g>
</svg>
